<svg width="209" height="79" viewBox="0 0 209 79" fill="none" xmlns="http://www.w3.org/2000/svg">
    <g clip-path="url(#clip0_5_3784)">
    <path d="M0 78.2515V25.8554H13.2231C15.6914 25.8554 17.9196 26.4426 19.911 27.6153C21.9008 28.7879 23.4875 30.3598 24.6713 32.3309C25.8551 34.3037 26.4478 36.5109 26.4478 38.9561V65.1541C26.4478 67.5993 25.8551 69.8082 24.6713 71.7793C23.4875 73.7504 21.9008 75.3223 19.911 76.495C17.9212 77.6677 15.6914 78.2548 13.2231 78.2548H0V78.2515ZM11.2585 68.5957H13.3742C13.8779 68.5957 14.2927 68.421 14.6201 68.0717C14.9475 67.724 15.1104 67.3232 15.1104 66.8741V37.3077C15.1104 36.8586 14.9458 36.4594 14.6201 36.1101C14.291 35.7608 13.8762 35.5861 13.3742 35.5861H11.2585V68.5957Z" fill="black"/>
    <path d="M29.393 78.2515V25.8554H40.8026V78.2515H29.393Z" fill="black"/>
    <path d="M55.0835 79C52.6656 79 50.612 78.4129 48.9262 77.2402C47.2387 76.0692 45.9659 74.4956 45.1112 72.5245C44.2532 70.5534 43.8267 68.3462 43.8267 65.8993V38.2043C43.8267 36.4078 44.2801 34.7112 45.1868 33.1144C46.0935 31.5175 47.2891 30.1203 48.7768 28.9227C50.2628 27.725 51.9134 26.7886 53.7268 26.1149C55.5403 25.4412 57.3537 25.1036 59.1672 25.1036C61.6355 25.1036 64.0282 25.6907 66.3454 26.8634C68.6626 28.0361 70.5885 29.608 72.1266 31.5791C73.663 33.5518 74.4303 35.7591 74.4303 38.2043V43.5187H63.2474V39.327C63.2474 38.1793 62.8058 37.2678 61.9243 36.5958C61.0427 35.9221 60.1226 35.5845 59.1655 35.5845C58.2084 35.5845 57.2882 35.9221 56.4084 36.5958C55.5268 37.2695 55.0852 38.181 55.0852 39.327V64.4023C55.0852 65.5001 55.5638 66.4732 56.5209 67.3215C57.478 68.1715 58.5106 68.594 59.6188 68.594C60.7271 68.594 61.8353 68.1715 62.7924 67.3215C63.7495 66.4732 64.228 65.5001 64.228 64.4023V59.6118H59.0899V49.1326H74.4287V78.2499H64.228V75.63H63.0946C62.8427 76.2788 62.25 76.8526 61.3181 77.3516C60.3862 77.8506 59.3535 78.2498 58.2201 78.5493C57.0867 78.8487 56.0406 78.9984 55.0852 78.9984L55.0835 79Z" fill="black"/>
    <path d="M78.9606 78.2515V25.8554H90.3702V78.2515H78.9606Z" fill="black"/>
    <path d="M96.415 40.9006V20.6158H102.46V27.4273L99.4375 40.9006H96.415Z" fill="black"/>
    <path d="M108.505 78.2515V25.8554H121.728C124.196 25.8554 126.424 26.4426 128.416 27.6153C130.405 28.7879 131.992 30.3598 133.176 32.3309C134.36 34.3037 134.953 36.5109 134.953 38.9561V65.1541C134.953 67.5993 134.36 69.8082 133.176 71.7793C131.992 73.7504 130.405 75.3223 128.416 76.495C126.426 77.6677 124.196 78.2548 121.728 78.2548H108.505V78.2515ZM119.763 68.5957H121.879C122.383 68.5957 122.797 68.421 123.125 68.0717C123.452 67.724 123.615 67.3232 123.615 66.8741V37.3077C123.615 36.8586 123.451 36.4594 123.125 36.1101C122.796 35.7608 122.381 35.5861 121.879 35.5861H119.763V68.5957Z" fill="black"/>
    <path d="M137.896 78.2515V25.8554H149.306V78.2515H137.896Z" fill="black"/>
    <path d="M165.931 79C163.513 79 161.296 78.4129 159.281 77.2402C157.266 76.0692 155.666 74.4956 154.482 72.5245C153.299 70.5534 152.706 68.3462 152.706 65.8993V38.2043C152.706 35.7591 153.297 33.5518 154.482 31.5791C155.664 29.608 157.265 28.0361 159.281 26.8634C161.296 25.6924 163.513 25.1036 165.931 25.1036C168.348 25.1036 170.627 25.6907 172.618 26.8634C174.608 28.0361 176.195 29.608 177.379 31.5791C178.563 33.5518 179.155 35.7591 179.155 38.2043V46.4379H167.972V37.5306C167.972 36.9817 167.771 36.5193 167.368 36.145C166.965 35.7708 166.486 35.5828 165.932 35.5828C165.429 35.5828 164.975 35.7691 164.572 36.145C164.167 36.5193 163.968 36.9817 163.968 37.5306V66.6479C163.968 67.1469 164.169 67.596 164.572 67.9952C164.975 68.3944 165.429 68.594 165.932 68.594C166.486 68.594 166.965 68.3944 167.368 67.9952C167.771 67.596 167.972 67.1469 167.972 66.6479V57.6657H179.155V65.8993C179.155 68.3445 178.563 70.5534 177.379 72.5245C176.195 74.4956 174.608 76.0675 172.618 77.2402C170.629 78.4129 168.399 79 165.931 79Z" fill="black"/>
    <path d="M195.777 79C193.359 79 191.143 78.4129 189.128 77.2402C187.113 76.0692 185.512 74.4956 184.329 72.5245C183.145 70.5534 182.552 68.3462 182.552 65.8993V38.2043C182.552 35.7591 183.143 33.5518 184.329 31.5791C185.511 29.608 187.111 28.0361 189.128 26.8634C191.143 25.6924 193.359 25.1036 195.777 25.1036C198.195 25.1036 200.411 25.6907 202.426 26.8634C204.441 28.0361 206.04 29.608 207.225 31.5791C208.409 33.5518 209.002 35.7591 209.002 38.2043V54.971H193.814V66.6479C193.814 67.1469 194.002 67.596 194.382 67.9952C194.759 68.3944 195.225 68.594 195.78 68.594C196.336 68.594 196.788 68.3944 197.14 67.9952C197.493 67.596 197.669 67.1469 197.669 66.6479V58.7884H209.003V66.7227C208.903 69.0182 208.234 71.0891 207.002 72.9354C205.768 74.7817 204.181 76.2555 202.242 77.3516C200.302 78.4495 198.148 78.9984 195.782 78.9984L195.777 79ZM193.812 44.4935H197.666V36.7089C197.666 36.16 197.49 35.7109 197.137 35.3616C196.784 35.0123 196.331 34.8376 195.777 34.8376C195.223 34.8376 194.756 35.0123 194.378 35.3616C194 35.7109 193.811 36.16 193.811 36.7089V44.4935H193.812Z" fill="black"/>
    <path d="M141.855 0.547271L134.415 4.80217C133.334 5.42094 132.669 6.56201 132.669 7.79789V16.3077C132.669 17.5436 133.334 18.6863 134.415 19.3034L141.855 23.5583C142.937 24.1771 144.267 24.1771 145.348 23.5583L152.788 19.3034C153.87 18.6846 154.534 17.5436 154.534 16.3077V7.79789C154.534 6.56201 153.87 5.41928 152.788 4.80217L145.348 0.547271C144.267 -0.0715023 142.937 -0.0715023 141.855 0.547271Z" fill="black" stroke="black" stroke-miterlimit="10"/>
    <path d="M142.151 23.5283L134.178 18.9391C133.487 18.5415 132.921 17.5385 132.921 16.7118V7.49844C132.921 6.67174 133.487 6.32077 134.178 6.71832L142.151 11.3076C142.843 11.7051 143.409 12.7081 143.409 13.5348V22.7482C143.409 23.5749 142.843 23.9259 142.151 23.5283Z" fill="white" stroke="black" stroke-miterlimit="10"/>
    <path d="M144.98 23.5283L153.05 18.9391C153.75 18.5415 154.323 17.5385 154.323 16.7118V7.49844C154.323 6.67174 153.75 6.32077 153.05 6.71832L144.98 11.3076C144.28 11.7051 143.707 12.7081 143.707 13.5348V22.7482C143.707 23.5749 144.28 23.9259 144.98 23.5283Z" fill="white" stroke="black" stroke-miterlimit="10"/>
    <path d="M134.454 6.45222L142.317 10.9733C142.999 11.3658 144.136 11.3558 144.843 10.9516L152.716 6.44889C153.423 6.0447 153.443 5.39266 152.761 5.0001L144.898 0.479067C144.216 0.0865123 143.079 0.0964925 142.373 0.500691L134.499 5.00343C133.792 5.40763 133.772 6.05967 134.454 6.45222Z" fill="white" stroke="black" stroke-miterlimit="10"/>
    <path d="M135.176 10.8926C135.521 10.7638 135.65 10.2643 135.464 9.77701C135.278 9.28973 134.848 8.99916 134.504 9.12801C134.159 9.25687 134.031 9.75635 134.217 10.2436C134.402 10.7309 134.832 11.0215 135.176 10.8926Z" fill="black" stroke="black" stroke-miterlimit="10"/>
    <path d="M135.176 17.9524C135.52 17.8236 135.649 17.3241 135.463 16.8368C135.277 16.3495 134.847 16.059 134.503 16.1878C134.158 16.3167 134.03 16.8162 134.216 17.3034C134.401 17.7907 134.831 18.0813 135.176 17.9524Z" fill="black" stroke="black" stroke-miterlimit="10"/>
    <path d="M140.75 14.31C141.095 14.1812 141.223 13.6817 141.038 13.1944C140.852 12.7071 140.422 12.4166 140.078 12.5454C139.733 12.6743 139.605 13.1738 139.79 13.6611C139.976 14.1483 140.406 14.4389 140.75 14.31Z" fill="black" stroke="black" stroke-miterlimit="10"/>
    <path d="M140.751 21.0948C141.095 20.9659 141.224 20.4664 141.038 19.9792C140.852 19.4919 140.422 19.2013 140.078 19.3302C139.734 19.459 139.605 19.9585 139.791 20.4458C139.977 20.9331 140.406 21.2236 140.751 21.0948Z" fill="black" stroke="black" stroke-miterlimit="10"/>
    <path d="M152.303 10.7528C152.489 10.2655 152.36 9.76601 152.016 9.63716C151.671 9.5083 151.242 9.79887 151.056 10.2862C150.87 10.7734 150.999 11.2729 151.343 11.4018C151.688 11.5306 152.117 11.2401 152.303 10.7528Z" fill="black" stroke="black" stroke-miterlimit="10"/>
    <path d="M152.302 14.4359C152.488 13.9486 152.359 13.4491 152.015 13.3203C151.67 13.1914 151.24 13.482 151.055 13.9693C150.869 14.4565 150.997 14.956 151.342 15.0849C151.686 15.2137 152.116 14.9232 152.302 14.4359Z" fill="black" stroke="black" stroke-miterlimit="10"/>
    <path d="M152.311 17.7935C152.496 17.3063 152.368 16.8068 152.023 16.6779C151.679 16.5491 151.249 16.8396 151.063 17.3269C150.878 17.8142 151.006 18.3137 151.351 18.4425C151.695 18.5714 152.125 18.2808 152.311 17.7935Z" fill="black" stroke="black" stroke-miterlimit="10"/>
    <path d="M147.735 13.5033C147.921 13.016 147.792 12.5166 147.448 12.3877C147.103 12.2589 146.673 12.5494 146.488 13.0367C146.302 13.524 146.43 14.0235 146.775 14.1523C147.119 14.2812 147.549 13.9906 147.735 13.5033Z" fill="black" stroke="black" stroke-miterlimit="10"/>
    <path d="M147.736 20.2885C147.922 19.8012 147.794 19.3017 147.449 19.1729C147.105 19.044 146.675 19.3346 146.489 19.8219C146.303 20.3091 146.432 20.8086 146.776 20.9375C147.121 21.0663 147.551 20.7758 147.736 20.2885Z" fill="black" stroke="black" stroke-miterlimit="10"/>
    <path d="M147.736 16.8962C147.921 16.4089 147.793 15.9094 147.448 15.7806C147.104 15.6517 146.674 15.9423 146.488 16.4296C146.303 16.9169 146.431 17.4163 146.776 17.5452C147.12 17.6741 147.55 17.3835 147.736 16.8962Z" fill="black" stroke="black" stroke-miterlimit="10"/>
    <path d="M149.568 6.26494C150.087 6.18067 150.459 5.8206 150.4 5.4607C150.34 5.1008 149.871 4.87736 149.352 4.96162C148.833 5.04589 148.461 5.40595 148.521 5.76586C148.58 6.12576 149.049 6.3492 149.568 6.26494Z" fill="black" stroke="black" stroke-miterlimit="10"/>
    <path d="M143.715 9.45616C144.234 9.3719 144.606 9.01183 144.547 8.65193C144.487 8.29203 144.018 8.06858 143.499 8.15284C142.981 8.23711 142.608 8.59718 142.668 8.95708C142.727 9.31698 143.196 9.54043 143.715 9.45616Z" fill="black" stroke="#0D0E00" stroke-miterlimit="10"/>
    <path d="M143.708 6.20659C144.227 6.12232 144.6 5.76225 144.54 5.40235C144.48 5.04245 144.012 4.81901 143.493 4.90327C142.974 4.98754 142.601 5.3476 142.661 5.70751C142.721 6.06741 143.189 6.29085 143.708 6.20659Z" fill="black" stroke="black" stroke-miterlimit="10"/>
    <path d="M143.709 2.88206C144.228 2.7978 144.601 2.43773 144.541 2.07783C144.481 1.71793 144.012 1.49448 143.494 1.57875C142.975 1.66301 142.602 2.02308 142.662 2.38298C142.721 2.74288 143.19 2.96633 143.709 2.88206Z" fill="black" stroke="black" stroke-miterlimit="10"/>
    <path d="M137.862 6.24974C138.381 6.16547 138.753 5.80541 138.693 5.44551C138.634 5.0856 138.165 4.86216 137.646 4.94642C137.127 5.03069 136.755 5.39076 136.814 5.75066C136.874 6.11056 137.343 6.334 137.862 6.24974Z" fill="black" stroke="black" stroke-miterlimit="10"/>
    </g>
    <defs>
    <clipPath id="clip0_5_3784">
    <rect width="209" height="79" fill="white"/>
    </clipPath>
    </defs>
</svg>
